# AST/ASF file generated using VICON BodyLanguage
# -----------------------------------------------
:version 1.10
:name VICON
:units
  mass 1.0
  length 0.45
  angle deg
:documentation
   .ast/.asf automatically generated from VICON data using
   VICON BodyBuilder and BodyLanguage model FoxedUp or BRILLIANT.MOD
:root
   order TX TY TZ RX RY RZ
   axis XYZ
   position 0 0 0  
   orientation 0 0 0 
:bonedata
  begin
     id 1 
     name lhipjoint
     direction 0.541323 -0.757556 0.364798 
     length 2.47576 
     axis 0 0 0  XYZ
  end
  begin
     id 2 
     name lfemur
     direction 0.34202 -0.939693 0  
     length 7.46493  
     axis 0 0 20  XYZ
    dof rx ry rz
    limits (-160.0 20.0)
           (-70.0 70.0)
           (-60.0 70.0)
  end
  begin
     id 3 
     name ltibia
     direction 0.34202 -0.939693 0   
     length 7.73805   
     axis 0 0 20   XYZ
    dof rx
    limits (-10.0 170.0)
  end
  begin
     id 4 
     name lfoot
     direction 0.107174 -0.294458 0.949636   
     length 2.25864   
     axis -90 7.62852e-016 20   XYZ
    dof rx rz
    limits (-45.0 90.0)
           (-70.0 20.0)
  end
  begin
     id 5 
     name ltoes
     direction 1.53606e-011 -4.21934e-011 1   
     length 1.12451   
     axis -90 7.62852e-016 20   XYZ
    dof rx
    limits (-90.0 20.0)
  end
  begin
     id 6 
     name rhipjoint
     direction -0.524745 -0.766967 0.36933   
     length 2.44538  
     axis 0 0 0  XYZ 
  end
  begin
     id 7 
     name rfemur
     direction -0.34202 -0.939693 0   
     length 7.61604   
     axis 0 0 -20   XYZ
    dof rx ry rz
    limits (-160.0 20.0)
           (-70.0 70.0)
           (-70.0 60.0)
  end
  begin
     id 8 
     name rtibia
     direction -0.34202 -0.939693 0   
     length 7.61056   
     axis 0 0 -20   XYZ
    dof rx
    limits (-10.0 170.0)
 end
 begin
     id 9 
     name rfoot
     direction -0.12616 -0.346623 0.929482   
     length 2.46372  
     axis -90 -7.62852e-016 -20   XYZ
    dof rx rz
    limits (-45.0 90.0)
           (-20.0 70.0)
  end
  begin
     id 10 
     name rtoes
     direction -1.53531e-011 -4.22004e-011 1   
     length 1.21611   
     axis -90 -7.62852e-016 -20   XYZ
    dof rx
    limits (-90.0 20.0)
  end
  begin
     id 11 
     name lowerback
     direction -0.000778023 0.997293 -0.0735223   
     length 2.06139   
     axis 0 0 0   XYZ
    dof rx ry rz
    limits (-20.0 45.0)
           (-30.0 30.0)
           (-30.0 30.0)
  end
  begin
     id 12 
     name upperback
     direction 0.0222598 0.999722 -0.0078355   
     length 2.06383   
     axis 0 0 0   XYZ
    dof rx ry rz
    limits (-20.0 45.0)
           (-30.0 30.0)
           (-30.0 30.0)
  end
  begin
     id 13 
     name thorax
     direction 0.0219654 0.999405 0.0265994   
     length 2.07163   
     axis 0 0 0   XYZ
    dof rx ry rz
    limits (-20.0 45.0)
           (-30.0 30.0)
           (-30.0 30.0)
  end
  begin
     id 14 
     name lowerneck
     direction 0.0213282 0.988147 0.15202   
     length 1.75969   
     axis 0 0 0   XYZ
    dof rx ry rz
    limits (-20.0 45.0)
           (-30.0 30.0)
           (-30.0 30.0)
  end
  begin
     id 15 
     name upperneck
     direction -0.0546456 0.982624 -0.177379   
     length 1.79244   
     axis 0 0 0   XYZ
    dof rx ry rz
    limits (-20.0 45.0)
           (-30.0 30.0)
           (-30.0 30.0)
  end
  begin
     id 16
     name head
     direction -0.0199987 0.996855 -0.076686  
     length 1.80555  
     axis 0 0 0   XYZ
    dof rx ry rz
    limits (-20.0 45.0)
           (-30.0 30.0)
           (-30.0 30.0)
  end
  begin
     id 17 
     name lclavicle
     direction 0.929565 0.363219 -0.063096  
     length 3.55722  
     axis 0 0 0   XYZ
    dof ry rz
    limits (-20.0 10.0)
           (0.0 20.0)
  end
  begin
     id 18 
     name lhumerus
     direction 1 -4.48993e-011 -2.36203e-027   
     length 4.92785   
     axis 180 -30 -90   XYZ
    dof rx ry rz
    limits (-60.0 90.0)
           (-90.0 90.0)
           (-90.0 90.0)
  end
  begin
     id 19
     name lradius
     direction 1 -4.48947e-011 2.02997e-027   
     length 3.44052   
     axis 180 -30 -90   XYZ
    dof rx
    limits (-10.0 170.0)
  end
  begin
     id 20
     name lwrist
     direction 1 -4.48962e-011 1.45991e-027   
     length 1.72026   
     axis 1.49639e-024 90 90   XYZ
    dof ry
    limits (-180.0 0.0)
 end
  begin
     id 21 
     name lhand
     direction 1 -4.48984e-011 2.91906e-027   
     length 0.654326   
     axis -1.863e-015 90 90   XYZ
    dof rx rz
    limits (-90.0 90.0)
           (-45.0 45.0)
  end
  begin
     id 22 
     name lfingers
     direction 1 -4.48961e-011 5.83968e-027   
     length 0.527534   
     axis -3.72598e-015 90 90   XYZ
    dof rx
    limits (0.0 90.0)
  end
  begin
     id 23
     name lthumb
     direction 0.707107 -6.34963e-011 0.707107   
     length 0.757437   
     axis -90 45 -6.68868e-015   XYZ
    dof rx rz
    limits (-45.0 45.0)
           (-45.0 45.0)
  end
  begin
     id 24 
     name rclavicle
     direction -0.902944 0.422599 -0.0781198   
     length 3.54432  
     axis 0 0 0   XYZ 
    dof ry rz
    limits (-10.0 20.0)
           (-20.0 0.0)
  end
  begin
     id 25 
     name rhumerus
     direction -1 -4.48953e-011 -4.75835e-028  
     length 5.09181   
     axis 180 30 90   XYZ
    dof rx ry rz
    limits (-90.0 60.0)
           (-90.0 90.0)
           (-90.0 90.0)
  end
  begin
     id 26 
     name rradius
     direction -1 -4.48986e-011 -3.25889e-027   
     length 3.49865   
     axis 180 30 90   XYZ
    dof rx
    limits (-10.0 170.0)
  end
  begin
     id 27 
     name rwrist
     direction -1 -4.48963e-011 1.45989e-027   
     length 1.74933   
     axis 1.49639e-024 -90 -90   XYZ
    dof ry
    limits (-180.0 0.0)
  end
  begin
     id 28
     name rhand
     direction -1 -4.49003e-011 2.91844e-027   
     length 0.66641   
     axis -1.863e-015 -90 -90   XYZ
    dof rx rz
    limits (-90.0 90.0)
           (-45.0 45.0)
  end
  begin
     id 29
     name rfingers
     direction -1 -4.48973e-011 5.83886e-027   
     length 0.537277   
     axis -3.72598e-015 -90 -90   XYZ
    dof rx
    limits (0.0 90.0)
  end
  begin
     id 30
     name rthumb
     direction -0.707107 -6.34976e-011 0.707107   
     length 0.771425   
     axis -90 -45 6.68868e-015   XYZ
    dof rx rz
    limits (-45.0 45.0)
           (-45.0 45.0)
  end
:hierarchy
  begin
    root lhipjoint rhipjoint lowerback
    lhipjoint lfemur
    lfemur ltibia
    ltibia lfoot
    lfoot ltoes
    rhipjoint rfemur
    rfemur rtibia
    rtibia rfoot
    rfoot rtoes
    lowerback upperback
    upperback thorax
    thorax lowerneck lclavicle rclavicle
    lowerneck upperneck
    upperneck head
    lclavicle lhumerus
    lhumerus lradius
    lradius lwrist
    lwrist lhand lthumb
    lhand lfingers
    rclavicle rhumerus
    rhumerus rradius
    rradius rwrist
    rwrist rhand rthumb
    rhand rfingers
  end

#!OML:ASF H:\LiuWeirdWalks\Patient Classification 1\Patient 1\Session 1\male.ASF
:FULLY-SPECIFIED
:DEGREES
305
root 0.0609512 18.1471 -24.2029 5.14111 8.13339 0.787016
lowerback 3.03309 -3.41257 -3.10282
upperback -1.10118 -4.61428 2.79934
thorax -2.35706 -2.23739 4.84444
lowerneck -18.8062 -0.260211 3.05212
upperneck 22.7677 -0.0368588 -4.8482
head 10.3961 -0.346107 -2.24815
rclavicle 5.52621e-014 -3.97569e-015
rhumerus -40.7029 -7.03997 -77.9575
rradius 30.6533
rwrist -8.19114
rhand -17.2694 -4.50823
rfingers 7.12502
rthumb 8.97539 -34.2973
lclavicle 5.52621e-014 -3.97569e-015
lhumerus -33.6004 7.96356 81.5896
lradius 32.3726
lwrist 9.10002
lhand -12.5913 0.322556
lfingers 7.12502
lthumb 13.4872 29.8658
rfemur -21.9351 -1.9981 21.5661
rtibia 28.5719
rfoot -10.6391 -16.5492
rtoes -4.50794
lfemur 10.8722 -4.49793 -15.8024
ltibia 22.419
lfoot 9.03628 0.649417
ltoes -27.177
306
root 0.0398417 18.1521 -24.139 5.10474 8.24747 0.660969
lowerback 3.06522 -3.38512 -2.90459
upperback -1.114 -4.56949 2.80391
thorax -2.4078 -2.21635 4.73953
lowerneck -18.6657 -0.27605 3.05137
upperneck 22.6807 -0.055632 -4.85672
head 10.3369 -0.354272 -2.25033
rclavicle 2.57923e-014 -1.59028e-014
rhumerus -40.6051 -6.86474 -78.1051
rradius 30.9235
rwrist -8.35881
rhand -17.2971 -4.4827
rfingers 7.12502
rthumb 8.94866 -34.2729
lclavicle 2.57923e-014 -1.59028e-014
lhumerus -33.8742 7.73403 81.5992
lradius 32.5035
lwrist 9.14891
lhand -12.6083 0.326727
lfingers 7.12502
lthumb 13.4708 29.8711
rfemur -21.5994 -1.99268 21.8054
rtibia 28.4094
rfoot -10.5723 -16.6181
rtoes -3.97812
lfemur 10.2281 -4.45819 -15.5043
ltibia 23.7674
lfoot 9.38155 0.353282
ltoes -26.4773
307
root 0.0195961 18.1571 -24.0764 5.07096 8.34493 0.533575
lowerback 3.09338 -3.35053 -2.70354
upperback -1.11905 -4.5147 2.81419
thorax -2.44873 -2.19079 4.63788
lowerneck -18.5934 -0.292069 3.03991
upperneck 22.6575 -0.0716442 -4.86314
head 10.314 -0.362554 -2.25163
rclavicle -4.52235e-015 2.3059e-014
rhumerus -40.4818 -6.6875 -78.2464
rradius 31.2059
rwrist -8.55151
rhand -17.3294 -4.49058
rfingers 7.12502
rthumb 8.91752 -34.2821
lclavicle -4.52235e-015 2.3059e-014
lhumerus -34.1238 7.52828 81.6201
lradius 32.6321
lwrist 9.15647
lhand -12.6075 0.30499
lfingers 7.12502
lthumb 13.4716 29.8493
rfemur -21.2682 -1.98909 22.0438
rtibia 28.2359
rfoot -10.4777 -16.6687
rtoes -3.42896
lfemur 9.54695 -4.3684 -15.2038
ltibia 25.1625
lfoot 9.71657 0.0516265
ltoes -25.4189
308
root 0.000196662 18.1619 -24.0149 5.03689 8.43367 0.40722
lowerback 3.11248 -3.30927 -2.5065
upperback -1.12749 -4.45066 2.833
thorax -2.48765 -2.16058 4.5464
lowerneck -18.477 -0.30749 3.02422
upperneck 22.5982 -0.0815382 -4.88518
head 10.27 -0.369811 -2.25569
rclavicle 2.3556e-014 -1.98785e-014
rhumerus -40.3629 -6.50335 -78.3686
rradius 31.5009
rwrist -8.76298
rhand -17.3658 -4.52278
rfingers 7.12502
rthumb 8.8824 -34.3158
lclavicle 2.3556e-014 -1.98785e-014
lhumerus -34.3791 7.33377 81.6599
lradius 32.7619
lwrist 9.12069
lhand -12.6055 0.314986
lfingers 7.12502
lthumb 13.4734 29.8592
rfemur -20.9364 -1.99896 22.2793
rtibia 28.0526
rfoot -10.3661 -16.6988
rtoes -2.83972
lfemur 8.83367 -4.2682 -14.915
ltibia 26.5965
lfoot 10.0209 -0.207205
ltoes -24.5106
309
root -0.0182575 18.1667 -23.9545 5.00691 8.53045 0.290758
lowerback 3.11666 -3.26146 -2.3105
upperback -1.12164 -4.37785 2.84739
thorax -2.50414 -2.12679 4.44877
lowerneck -18.4113 -0.341465 2.98789
upperneck 22.5943 -0.115772 -4.88816
head 10.2546 -0.388272 -2.25455
rclavicle -3.77691e-014 -7.15625e-015
rhumerus -40.2201 -6.34719 -78.4782
rradius 31.8066
rwrist -8.99417
rhand -17.3981 -4.59266
rfingers 7.12502
rthumb 8.85116 -34.387
lclavicle -3.77691e-014 -7.15625e-015
lhumerus -34.5904 7.1333 81.7143
lradius 32.879
lwrist 9.08276
lhand -12.5951 0.316488
lfingers 7.12502
lthumb 13.4834 29.86
rfemur -20.6071 -2.04458 22.502
rtibia 27.8616
rfoot -10.2407 -16.7059
rtoes -2.22227
lfemur 8.08591 -4.19588 -14.6559
ltibia 28.0599
lfoot 10.3691 -0.412598
ltoes -23.2794
